<svg xmlns="http://www.w3.org/2000/svg" width="85" height="35" class="icon icon-LogoBetter2021" viewBox="0 0 495 133"><path fill="#017848" d="M427.207 129.574h30.067V70.246c2.798-8.952 15.915-17.323 34.834-13.137V28.034c-15.728 0-29.26 10.361-34.834 26.877V30.025h-30.067v99.549ZM378.24 49.752c9.159 0 13.739 4.973 13.739 9.76 0 6.963-5.574 13.946-36.637 17.51 0-16.329 10.361-27.27 22.898-27.27Zm38.419 70.662V93.932c-9.947 8.371-23.292 12.951-34.046 12.951-11.149 0-20.101-5.968-24.494-15.52 39.413-2.778 58.726-16.33 58.726-35.436 0-15.334-15.728-28.265-37.631-28.265-29.073 0-52.551 21.303-52.551 52.365 0 29.26 24.079 50.956 54.354 50.956 12.951-.021 26.089-3.792 35.642-10.569ZM304.78 98.718V49.752h20.495v-19.5l-20.495.208V6.567L247.836 46.79V11.748l-47.578 35.828v2.197h17.925v54.54c0 17.324 12.744 26.483 30.068 26.483 7.563 0 13.946-1.388 19.706-4.766v-20.515c-2.797 1.596-6.175 2.798-9.946 2.798-6.362 0-10.154-3.191-10.154-8.766V49.773h27.27v54.354c0 17.51 12.744 26.669 30.254 26.669 7.771 0 14.133-.994 20.308-4.766v-20.701c-2.59 1.595-6.569 2.984-10.548 2.984-6.382-.042-10.361-3.419-10.361-9.595ZM159.664 49.752c9.159 0 13.738 4.973 13.738 9.76 0 6.963-5.574 13.946-36.636 17.51 0-16.329 10.34-27.27 22.898-27.27Zm38.418 70.662V93.932c-9.946 8.371-23.291 12.951-34.046 12.951-11.148 0-20.1-5.968-24.493-15.52 39.413-2.778 58.726-16.33 58.726-35.436 0-15.334-15.728-28.265-37.631-28.265-29.074 0-52.552 21.303-52.552 52.365 0 29.26 24.079 50.956 54.354 50.956 12.952-.021 26.09-3.792 35.642-10.569ZM53.546 76.028c9.346 0 17.116 5.781 17.116 15.52 0 9.16-7.77 14.734-17.116 14.734h-22.69V76.028h22.69ZM51.95 25.072c8.952 0 16.122 5.574 16.122 14.133 0 9.159-7.17 14.733-16.122 14.733H30.855V25.072H51.95ZM0 1.967v127.607h60.115c23.084 0 41.216-14.133 41.216-35.642 0-13.74-8.766-24.68-21.51-29.86 11.543-5.181 19.314-15.335 19.314-27.478 0-20.909-18.319-34.648-41.61-34.648H0v.021Z"/></svg>